<?xml version="1.0" encoding="utf-8"?>
<!-- Generator: Adobe Illustrator 23.0.4, SVG Export Plug-In . SVG Version: 6.00 Build 0)  -->
<svg version="1.1" id="Layer_1" xmlns="http://www.w3.org/2000/svg" xmlns:xlink="http://www.w3.org/1999/xlink" x="0px" y="0px"
	 viewBox="0 0 1000 261" style="enable-background:new 0 0 1000 261;" xml:space="preserve">
<style type="text/css">
	.st0{fill:#FFFFFF;}
</style>
<g>
	<path class="st0" d="M2.1,187.3c5,0,8.6-1.2,10.9-3.7c2.2-2.5,3.6-5.7,4-9.7c0.4-4,0.6-10,0.6-18.1V33.6c0-6.5,0.3-12.1,0.8-16.8
		L0,17.8V7c10.3,0,17.7-0.6,22.1-1.8C26.5,4,29.9,2.2,32.3,0h7.5v78.8c6-5,12.8-9.1,20.4-12.3c7.6-3.2,14.9-4.8,22-4.8
		c14.8,0,25.6,4.7,32.3,14c6.7,9.3,10.2,23.9,10.3,43.9l0.3,48.1c0,7.8-0.3,13.6-1,17.6l16.3-0.8v10.6H87.6v-7.8
		c5,0,8.6-1.2,10.7-3.7c2.2-2.5,3.4-5.7,3.9-9.6c0.4-3.9,0.6-9.9,0.6-18.2v-36.2c0-14.8-2.3-25.9-7-33.2c-4.7-7.3-12-11-22-11
		c-6.4,0-12.7,1.5-19,4.5c-6.3,3-11.3,6.8-15.1,11.5v76.2c0,6.7-0.4,12.6-1.3,17.6l16.3-0.8v10.6H2.1V187.3z"/>
	<path class="st0" d="M166.8,190.7c-6.6-5.7-9.9-13.1-9.9-22.2c0-10,4-18.4,12-25.3c8-6.9,18.1-12,30.2-15.4
		c12.1-3.4,24.3-5,36.6-4.8v-16c0-11.2-1.6-19.9-4.9-26.2c-3.3-6.3-10.3-9.4-20.9-9.4c-5.3,0-10.4,1.1-15.2,3.4
		c-4.8,2.2-8.4,5.6-10.6,10.1c2.2,2.4,3.4,5.7,3.4,9.8c0,2.6-0.9,5-2.8,7.4c-1.9,2.3-4.7,3.5-8.3,3.5s-6.5-1.2-8.5-3.5
		c-2.1-2.3-3.1-5.4-3.1-9.2c0-5.7,2.2-10.9,6.6-15.6c4.4-4.7,10.5-8.5,18.3-11.2c7.8-2.8,16.6-4.1,26.2-4.1c14.5,0,25.1,3.8,32,11.5
		c6.9,7.7,10.2,19.8,10.1,36.3l-0.3,58.1c0,5.5-0.3,11.4-1,17.6l18.3-1v10.9h-37c-0.5-2.6-1.1-7.5-1.8-14.7
		c-12.6,12.6-26.1,18.9-40.6,18.9C183,199.2,173.4,196.4,166.8,190.7z M219.4,180.8c5.3-2.5,10.8-6.3,16.3-11.5
		c-0.2-2.6-0.3-7-0.3-13.2l0.3-24.3c-14.1,0.5-26.7,3.4-37.7,8.7c-11,5.3-16.5,13.3-16.5,24.2c0,6.4,1.9,11.3,5.7,14.7
		c3.8,3.4,8.6,5.2,14.5,5.2C208.1,184.5,214,183.3,219.4,180.8z"/>
	<path class="st0" d="M292.8,187.3c5,0,8.6-1.2,10.7-3.7c2.2-2.5,3.4-5.7,3.9-9.6c0.4-3.9,0.6-9.9,0.6-18.2V96.9
		c0-5,0.3-10.6,1-16.8l-18.3,1V70.3c10.2,0,17.4-0.6,21.8-1.8c4.4-1.2,7.8-2.9,10.2-5.2h7.5v104.4c0,7.8-0.3,13.6-1,17.6l16.3-0.8
		v10.6h-52.7V187.3z M308.8,33.2c-2.8-3-4.1-6.6-4.1-10.7s1.4-7.8,4.3-10.9c2.8-3.1,6.1-4.7,9.7-4.7c4,0,7.3,1.5,9.9,4.5
		c2.7,3,4,6.7,4,11c0,4.1-1.4,7.7-4.3,10.7c-2.8,3-6.2,4.5-9.9,4.5C314.7,37.7,311.5,36.2,308.8,33.2z"/>
	<path class="st0" d="M363,253.2c5,0,8.6-1.3,10.7-3.7c2.2-2.5,3.4-5.6,3.7-9.3c0.3-3.7,0.6-9.9,0.8-18.5l0.5-124.8
		c0-7.2,0.3-12.8,1-16.8l-18.3,1V70.3c10.2,0,17.1-0.6,20.9-1.7c3.8-1.1,6.9-2.9,9.3-5.3h7.8c0.7,8.4,1,13.1,1,14
		c5.2-4.7,11.4-8.4,18.6-11.2c7.2-2.8,14.4-4.3,21.4-4.3c10.2,0,19.5,2.6,28.2,7.9c8.6,5.3,15.5,12.8,20.8,22.5
		c5.3,9.7,7.9,21,7.9,33.7c0,14.3-3,27-9,38.1c-6,11.1-14.1,19.8-24.2,26c-10.1,6.2-21,9.3-32.7,9.3c-11.9,0-22.2-2.8-31-8.5v42.9
		c0,7.8-0.3,13.6-1,17.6l16.3-0.8V261H363V253.2z M452.1,181.4c5.9-5,10.5-12,13.8-20.9c3.3-9,4.9-19.1,4.9-30.5
		c0-15.5-3.3-28.6-9.9-39.4c-6.6-10.8-16.5-16.1-29.6-16.1c-5.7,0-11.2,1.4-16.5,4.1c-5.3,2.8-10,6.2-14,10.3
		c0.2,1.2,0.3,6.5,0.3,15.8l-0.3,74.2c8.8,6.7,18.9,10.1,30.2,10.1C439.1,188.9,446.1,186.4,452.1,181.4z"/>
	<path class="st0" d="M517.1,187.3c5,0,8.6-1.2,10.9-3.7c2.2-2.5,3.6-5.7,4-9.7c0.4-4,0.6-10,0.6-18.1V33.6c0-6.5,0.3-12.1,0.8-16.8
		l-18.3,1V7c10.3,0,17.7-0.6,22.1-1.8c4.4-1.2,7.8-2.9,10.2-5.2h7.5v78.8c6-5,12.8-9.1,20.4-12.3c7.6-3.2,14.9-4.8,22-4.8
		c14.8,0,25.6,4.7,32.3,14c6.7,9.3,10.2,23.9,10.3,43.9l0.3,48.1c0,7.8-0.3,13.6-1,17.6l16.3-0.8v10.6h-52.7v-7.8
		c5,0,8.6-1.2,10.7-3.7c2.2-2.5,3.4-5.7,3.9-9.6c0.4-3.9,0.6-9.9,0.6-18.2v-36.2c0-14.8-2.3-25.9-7-33.2c-4.7-7.3-12-11-22-11
		c-6.4,0-12.7,1.5-19,4.5c-6.3,3-11.3,6.8-15.1,11.5v76.2c0,6.7-0.4,12.6-1.3,17.6l16.3-0.8v10.6h-52.7V187.3z"/>
	<path class="st0" d="M681.8,190.7c-6.6-5.7-9.9-13.1-9.9-22.2c0-10,4-18.4,12-25.3c8-6.9,18.1-12,30.2-15.4
		c12.1-3.4,24.3-5,36.6-4.8v-16c0-11.2-1.6-19.9-4.9-26.2c-3.3-6.3-10.3-9.4-20.9-9.4c-5.3,0-10.4,1.1-15.2,3.4
		c-4.8,2.2-8.4,5.6-10.6,10.1c2.2,2.4,3.4,5.7,3.4,9.8c0,2.6-0.9,5-2.8,7.4c-1.9,2.3-4.7,3.5-8.3,3.5c-3.6,0-6.5-1.2-8.5-3.5
		c-2.1-2.3-3.1-5.4-3.1-9.2c0-5.7,2.2-10.9,6.6-15.6c4.4-4.7,10.5-8.5,18.3-11.2c7.8-2.8,16.6-4.1,26.2-4.1c14.5,0,25.1,3.8,32,11.5
		c6.9,7.7,10.2,19.8,10.1,36.3l-0.3,58.1c0,5.5-0.3,11.4-1,17.6l18.3-1v10.9h-37c-0.5-2.6-1.1-7.5-1.8-14.7
		c-12.6,12.6-26.1,18.9-40.6,18.9C698,199.2,688.4,196.4,681.8,190.7z M734.4,180.8c5.3-2.5,10.8-6.3,16.3-11.5
		c-0.2-2.6-0.3-7-0.3-13.2l0.3-24.3c-14.1,0.5-26.7,3.4-37.7,8.7c-11,5.3-16.5,13.3-16.5,24.2c0,6.4,1.9,11.3,5.7,14.7
		c3.8,3.4,8.6,5.2,14.5,5.2C723.1,184.5,729,183.3,734.4,180.8z"/>
	<path class="st0" d="M807.8,187.3c5,0,8.6-1.2,10.7-3.7c2.2-2.5,3.4-5.6,3.7-9.3c0.3-3.7,0.6-9.9,0.8-18.5l0.3-58.9
		c0-7.2,0.3-12.8,1-16.8l-18.3,1V70.3c10.2,0,17.1-0.6,20.9-1.7c3.8-1.1,7-2.9,9.6-5.3h7.5c0.3,3.3,0.7,8.5,1,15.8
		c5.9-5.2,12.5-9.3,20-12.5c7.5-3.2,14.9-4.8,22.1-4.8c15,0,25.9,4.7,32.8,14.1c6.9,9.4,10.3,24,10.3,43.8v48.1
		c0,7.8-0.3,13.6-1,17.6l16.3-0.8v10.6h-52.7v-7.8c5,0,8.6-1.2,10.7-3.7c2.2-2.5,3.4-5.7,3.9-9.6c0.4-3.9,0.6-9.9,0.6-18.2v-36.2
		c-0.2-14.8-2.6-26-7.2-33.5c-4.7-7.5-12-11.2-22-11.2c-6.2,0-12.4,1.5-18.5,4.7c-6.1,3.1-11.2,7.2-15.1,12.1
		c0.2,1.9,0.3,5.3,0.3,10.1l-0.3,65.9c0,7.8-0.3,13.6-1,17.6l16.3-0.8v10.6h-52.7V187.3z"/>
	<path class="st0" d="M974.2,194.4c-2.9-3.2-4.4-7.1-4.4-11.8c0-4.7,1.5-8.6,4.5-11.9c3-3.3,6.6-4.9,10.7-4.9
		c4.3,0,7.9,1.6,10.7,4.9c2.8,3.3,4.3,7.2,4.3,11.9c0,4.7-1.5,8.6-4.5,11.8c-3,3.2-6.6,4.8-10.7,4.8
		C980.6,199.2,977.1,197.6,974.2,194.4z"/>
</g>
</svg>
