<?xml version="1.0" encoding="utf-8"?>
<!-- Generator: Adobe Illustrator 23.0.4, SVG Export Plug-In . SVG Version: 6.00 Build 0)  -->
<svg version="1.1" id="Layer_1" xmlns="http://www.w3.org/2000/svg" xmlns:xlink="http://www.w3.org/1999/xlink" x="0px" y="0px"
	 viewBox="0 0 1000 270" style="enable-background:new 0 0 1000 270;" xml:space="preserve">
<style type="text/css">
	.st0{fill:#FFFFFF;}
</style>
<g>
	<path class="st0" d="M0,204.7v-4.3l16.9-8.6V34.2L0.8,20.3v-1.9L36.7,3.7h1.6v97.5h1.1c6.8-6.8,13.4-11.8,19.7-15
		c6.3-3.2,13.4-4.8,21-4.8c10.5,0,19.2,2.6,25.9,7.9c6.7,5.3,10,13.1,10,23.4v79l16.9,8.6v4.3H75.6v-4.3l19-7.8v-67.3
		c0-7.9-2.5-13.8-7.4-18c-4.9-4.1-11.3-6.2-19.2-6.2c-4.8,0-10.1,0.8-15.9,2.4c-5.8,1.6-10.4,3.9-13.8,7v82l19,7.8v4.3H0z"/>
	<path class="st0" d="M183.5,207.3c-8.4,0-15.4-2.5-20.9-7.4c-5.5-4.9-8.3-11.7-8.3-20.5c0-8.8,3.3-16.3,9.8-22.8
		c6.5-6.4,17.5-11.4,32.8-15l25.5-5.9v-19.6c0-6.1-2.5-11.3-7.4-15.7c-4.9-4.4-10.5-6.6-16.7-6.6c-6.8,0-11.5,1.8-14.2,5.5
		c-2.7,3.7-4,8.5-4,14.6v7.5l-1.3,1.3h-13.9c-2.7,0-4.5-0.4-5.5-1.3c-1-0.9-1.5-2.9-1.5-6.2c0-3.9,1.2-7.9,3.5-12.1
		c2.3-4.1,5.9-7.7,10.7-10.7c5-3.2,10.2-5.9,15.7-8c5.4-2.1,11.3-3.2,17.6-3.2c6.3,0,12.4,0.9,18.4,2.7c6,1.8,10.9,4.8,14.6,9
		c3.8,4.2,5.6,10,5.6,17.6v76.1c1.2,1.3,3,2.3,5.4,3.2c2.3,0.9,5.5,1.3,9.6,1.3H269l0.8,0.5v0.8c-2.1,3.9-5.3,7.4-9.5,10.3
		c-4.2,2.9-9.3,4.4-15.4,4.4c-5.5,0-10-1.5-13.5-4.4c-3.5-2.9-5.9-6.8-7.4-11.7h-1.6c-4.6,4.6-10.4,8.5-17.3,11.5
		C198.2,205.8,191.1,207.3,183.5,207.3z M175.2,174.1c0,11.1,6.7,16.6,20.1,16.6c4.3,0,8.5-0.4,12.7-1.3c4.2-0.9,9-2.5,14.3-4.8
		v-39.7c-14.3,2.7-24.7,5.5-31.4,8.4c-6.6,2.9-10.9,6.1-12.9,9.5C176.2,166.3,175.2,170,175.2,174.1z"/>
	<path class="st0" d="M287.2,204.7v-4.3l16.9-8.6V112L288.1,98v-1.9L324,81.4h1.6v110.4l16.9,8.6v4.3H287.2z M314,49
		c-4.6,0-8.5-1.6-11.5-4.7c-3-3.1-4.6-6.9-4.6-11.4c0-4.6,1.5-8.5,4.6-11.5c3-3,6.9-4.6,11.5-4.6c4.6,0,8.5,1.5,11.5,4.6
		c3,3,4.6,6.9,4.6,11.5c0,4.5-1.5,8.3-4.6,11.4C322.5,47.4,318.7,49,314,49z"/>
	<path class="st0" d="M369.5,266.3V262l16.9-8.6V112L370.3,98v-1.9l33.2-14.7h1.6l2.1,16.3h1.9c6.8-5.7,13.3-9.9,19.6-12.5
		c6.3-2.6,13-3.9,20.4-3.9c9.1,0,17.1,2.3,24.1,7c7,4.6,12.5,11.2,16.5,19.7c4,8.5,6,18.6,6,30.4c0,14.6-2.7,27.1-8.2,37.4
		c-5.5,10.3-12.8,18.1-22.1,23.4c-9.3,5.4-19.5,8-30.5,8c-10,0-19-0.9-27.1-2.7v48.8l19,8.6v4.3H369.5z M434.4,99.9
		c-4.3,0-8.7,0.7-13.3,2c-4.6,1.3-9,3.3-13.3,6v75.3c5.4,4.3,10.8,7.2,16.3,8.8c5.5,1.6,11.7,2.4,18.5,2.4c8.6,0,16-3.6,22.2-10.9
		c6.3-7.2,9.4-19.3,9.4-36.3c0-11.1-1.8-20.1-5.4-27.1c-3.6-7-8.4-12.1-14.5-15.4C448.4,101.6,441.7,99.9,434.4,99.9z"/>
	<path class="st0" d="M521.4,204.7v-4.3l16.9-8.6V34.2l-16.1-13.9v-1.9l35.9-14.7h1.6v97.5h1.1c6.8-6.8,13.4-11.8,19.7-15
		c6.3-3.2,13.4-4.8,21-4.8c10.5,0,19.2,2.6,25.9,7.9c6.7,5.3,10,13.1,10,23.4v79l16.9,8.6v4.3H597v-4.3l19-7.8v-67.3
		c0-7.9-2.5-13.8-7.4-18c-4.9-4.1-11.3-6.2-19.2-6.2c-4.8,0-10.1,0.8-15.9,2.4c-5.8,1.6-10.4,3.9-13.8,7v82l19,7.8v4.3H521.4z"/>
	<path class="st0" d="M705,207.3c-8.4,0-15.4-2.5-20.9-7.4c-5.5-4.9-8.3-11.7-8.3-20.5c0-8.8,3.3-16.3,9.8-22.8
		c6.5-6.4,17.5-11.4,32.8-15l25.5-5.9v-19.6c0-6.1-2.5-11.3-7.4-15.7c-4.9-4.4-10.5-6.6-16.7-6.6c-6.8,0-11.5,1.8-14.2,5.5
		c-2.7,3.7-4,8.5-4,14.6v7.5l-1.3,1.3h-13.9c-2.7,0-4.5-0.4-5.5-1.3c-1-0.9-1.5-2.9-1.5-6.2c0-3.9,1.2-7.9,3.5-12.1
		c2.3-4.1,5.9-7.7,10.7-10.7c5-3.2,10.2-5.9,15.7-8c5.4-2.1,11.3-3.2,17.6-3.2c6.3,0,12.4,0.9,18.4,2.7c6,1.8,10.9,4.8,14.6,9
		c3.8,4.2,5.6,10,5.6,17.6v76.1c1.2,1.3,3,2.3,5.4,3.2c2.3,0.9,5.5,1.3,9.6,1.3h10.2l0.8,0.5v0.8c-2.1,3.9-5.3,7.4-9.5,10.3
		c-4.2,2.9-9.3,4.4-15.4,4.4c-5.5,0-10-1.5-13.5-4.4c-3.5-2.9-5.9-6.8-7.4-11.7h-1.6c-4.6,4.6-10.4,8.5-17.3,11.5
		C719.7,205.8,712.5,207.3,705,207.3z M696.7,174.1c0,11.1,6.7,16.6,20.1,16.6c4.3,0,8.5-0.4,12.7-1.3c4.2-0.9,9-2.5,14.3-4.8v-39.7
		c-14.3,2.7-24.7,5.5-31.4,8.4c-6.6,2.9-10.9,6.1-12.9,9.5C697.7,166.3,696.7,170,696.7,174.1z"/>
	<path class="st0" d="M807.1,204.7v-4.3l16.9-8.6V112L807.9,98v-1.9l33.2-14.7h1.6l2.4,19.8h1.3c6.8-6.8,13.4-11.8,19.7-15
		c6.3-3.2,13.4-4.8,21-4.8c10.5,0,19.2,2.6,25.9,7.9c6.7,5.3,10,13.1,10,23.4v79l16.9,8.6v4.3h-57.3v-4.3l19-8.6v-66.5
		c0-7.9-2.5-13.8-7.4-18c-4.9-4.1-11.3-6.2-19.2-6.2c-4.8,0-10.1,0.8-15.9,2.4c-5.8,1.6-10.4,3.9-13.8,7v81.2l19,8.6v4.3H807.1z"/>
	<path class="st0" d="M983.7,206c-4.5,0-8.3-1.6-11.5-4.8c-3.2-3.2-4.8-7.1-4.8-11.5c0-4.5,1.6-8.3,4.8-11.5
		c3.2-3.2,7.1-4.8,11.5-4.8c4.5,0,8.3,1.6,11.5,4.8c3.2,3.2,4.8,7.1,4.8,11.5c0,4.5-1.6,8.3-4.8,11.5C992,204.4,988.1,206,983.7,206
		z"/>
</g>
</svg>
